<svg xmlns="http://www.w3.org/2000/svg" width="349.585" height="128" viewBox="0 0 349.585 128"><title>logo</title><path d="M180.151,80.671H153.214a.712.712,0,0,1-.725-.962l13.763-46.474a2.282,2.282,0,0,1,.429-.968c.083,0,.277.438.432.968l13.76,46.474a.708.708,0,0,1-.722.962m-101.226,0H51.988a.711.711,0,0,1-.725-.962L65.029,33.235a2.336,2.336,0,0,1,.426-.968,2.341,2.341,0,0,1,.426.968L79.641,79.71a.706.706,0,0,1-.718.962m270.515,46.484L300.165,51.219a1.343,1.343,0,0,1,.139-1.578L345.686.737c.376-.407.235-.737-.324-.737H301.487a2.5,2.5,0,0,0-1.665.762L258,49.434c-.363.416-.657.308-.657-.247V1.005a1.011,1.011,0,0,0-1.011-1H223.893a1.007,1.007,0,0,0-1,1V81.023c-.176,14.811,3.133,12.946,8.436,22.115,4.347,7.5.638,18.082-10.131,18.825-8.987.617-16.9-9.632-10.186-19.9,7.088-10.834,10.06-5.815,0-35.535L188.293.953A1.513,1.513,0,0,0,186.955,0H146.844a1.508,1.508,0,0,0-1.335.95L116.476,83.739c-.185.521-.484.521-.663,0L87.061.953A1.513,1.513,0,0,0,85.726,0H45.619a1.52,1.52,0,0,0-1.341.95L.063,127.047a.67.67,0,0,0,.672.95h34.9a1.439,1.439,0,0,0,1.3-.962l5.648-18.869a1.439,1.439,0,0,1,1.3-.965H87.028a1.439,1.439,0,0,1,1.3.965l5.654,18.868a1.436,1.436,0,0,0,1.3.962h41.587a1.44,1.44,0,0,0,1.3-.962l5.651-18.868a1.431,1.431,0,0,1,1.3-.965h43.151a1.435,1.435,0,0,1,1.3.965l5.645,18.868a1.447,1.447,0,0,0,1.3.962H256.33a1.013,1.013,0,0,0,1.011-1.008V92.975a2.864,2.864,0,0,1,.7-1.732l13.22-13.608a.753.753,0,0,1,1.239.13l30.92,49.385a2.052,2.052,0,0,0,1.541.851h44.026c.552,0,.762-.379.453-.842" fill="#2067ca"/></svg>